<svg xmlns="http://www.w3.org/2000/svg" fill="none" viewBox="0 0 14 14" id="Copy-2--Streamline-Core" height="14" width="14"><desc>Copy 2 Streamline Icon: https://streamlinehq.com</desc><g id="copy-2"><path id="Vector 3887" fill="#7af1ff" d="M13 12V4.5c0 -0.55228 -0.4477 -1 -1 -1H4.5c-0.55228 0 -1 0.44772 -1 1V12c0 0.5523 0.44772 1 1 1H12c0.5523 0 1 -0.4477 1 -1Z" stroke-width="1"></path><path id="Union" fill="#0c098c" fill-rule="evenodd" d="M1.625 2c0 -0.20711 0.16789 -0.375 0.375 -0.375h7.5c0.34518 0 0.625 -0.27982 0.625 -0.625 0 -0.345178 -0.27982 -0.625 -0.625 -0.625H2C1.10254 0.375 0.375 1.10254 0.375 2v7.5c0 0.34518 0.279822 0.625 0.625 0.625 0.34518 0 0.625 -0.27982 0.625 -0.625V2Zm2.5 2.5c0 -0.20711 0.16789 -0.375 0.375 -0.375H12c0.2071 0 0.375 0.16789 0.375 0.375V12c0 0.2071 -0.1679 0.375 -0.375 0.375H4.5c-0.20711 0 -0.375 -0.1679 -0.375 -0.375V4.5ZM4.5 2.875c-0.89746 0 -1.625 0.72754 -1.625 1.625V12c0 0.8975 0.72754 1.625 1.625 1.625H12c0.8975 0 1.625 -0.7275 1.625 -1.625V4.5c0 -0.89746 -0.7275 -1.625 -1.625 -1.625H4.5ZM5 8.25c0 -0.41421 0.33579 -0.75 0.75 -0.75H7.5V5.75c0 -0.41421 0.33579 -0.75 0.75 -0.75s0.75 0.33579 0.75 0.75V7.5h1.75c0.4142 0 0.75 0.33579 0.75 0.75s-0.3358 0.75 -0.75 0.75H9v1.75c0 0.4142 -0.33579 0.75 -0.75 0.75s-0.75 -0.3358 -0.75 -0.75V9H5.75C5.33579 9 5 8.66421 5 8.25Z" clip-rule="evenodd" stroke-width="1"></path></g></svg>