<svg xmlns="http://www.w3.org/2000/svg" fill="none" viewBox="0 0 14 14" id="Triangle-Arrow-Move-Down-2--Streamline-Core.svg" height="14" width="14"><desc>Triangle Arrow Move Down 2 Streamline Icon: https://streamlinehq.com</desc><g id="triangle-arrow-move-down-2--move-down-arrows"><path id="Vector 4421" fill="#7af1ff" d="m13 4 0 -2c0 -0.55228 -0.4477 -1 -1 -1L2 1c-0.55228 -0.000001 -1 0.44771 -1 1l0 2c0 0.55228 0.44771 1 1 1l10 0c0.5523 0 1 -0.44772 1 -1Z" stroke-width="1"></path><path id="Union" fill="#0c098c" fill-rule="evenodd" d="M13.625 2c0 -0.89746 -0.7275 -1.625 -1.625 -1.625H2C1.10254 0.375 0.375 1.10254 0.375 2v2c0 0.89746 0.72754 1.625 1.625 1.625l10 0c0.8975 0 1.625 -0.72754 1.625 -1.625V2ZM12 1.625c0.2071 0 0.375 0.16789 0.375 0.375v2c0 0.20711 -0.1679 0.375 -0.375 0.375l-10 0c-0.20711 0 -0.375 -0.16789 -0.375 -0.375l0 -2c0 -0.20711 0.16789 -0.375 0.375 -0.375l10 0ZM6.25 7l0 3H4.5c-0.20223 0 -0.38455 0.1218 -0.46194 0.3087 -0.07739 0.1868 -0.03461 0.4019 0.10839 0.5449l2.5 2.5c0.19526 0.1952 0.51184 0.1952 0.7071 0l2.5 -2.5c0.143 -0.143 0.18575 -0.3581 0.10839 -0.5449C9.88455 10.1218 9.70223 10 9.5 10H7.75l0 -3c0 -0.41421 -0.33579 -0.75 -0.75 -0.75s-0.75 0.33579 -0.75 0.75Z" clip-rule="evenodd" stroke-width="1"></path></g></svg>